<svg width="51" height="51" viewBox="0 0 51 51" fill="none" xmlns="http://www.w3.org/2000/svg">
<g filter="url(#filter0_f)">
<path d="M41.6252 26.0576C41.6252 35.0097 34.368 42.2667 25.4161 42.2667C16.4642 42.2667 9.20701 35.0095 9.20701 26.0576C9.20701 17.1057 16.4642 9.84848 25.4161 9.84848C34.368 9.84848 41.6252 17.1057 41.6252 26.0576V26.0576Z" fill="#FFCC00"/>
<path d="M26.2118 1.16162C26.2118 1.16162 23.1389 3.71776 24.8981 6.25135C25.8855 7.67333 20.68 7.33219 22.9655 11.9276C23.4167 12.8347 27.9151 15.8766 26.3367 13.538C24.7583 11.1995 32.3799 8.29429 27.1447 5.52327C24.3426 4.04016 27.3443 1.27644 26.2118 1.16177L26.2118 1.16162Z" fill="#FFCC00"/>
<path d="M35.2982 3.09122C35.2982 3.09122 31.4932 4.31497 32.1791 7.32231C32.5641 9.01011 27.8625 6.74994 28.2667 11.8664C28.3465 12.8763 31.3836 17.378 30.7926 14.6191C30.2016 11.8602 38.3568 12.0112 34.535 7.4857C32.4895 5.06359 36.306 3.62053 35.2983 3.09122H35.2982Z" fill="#FFCC00"/>
<path d="M42.9783 8.2465C42.9783 8.2465 38.991 7.96746 38.5094 11.0141C38.239 12.724 34.7153 8.8775 33.1877 13.7773C32.8862 14.7444 34.0314 20.0526 34.5088 17.2718C34.9863 14.491 42.5004 17.6639 40.6355 12.0417C39.6374 9.03259 43.7167 9.11237 42.9783 8.24628L42.9783 8.2465Z" fill="#FFCC00"/>
<path d="M48.2757 16.0904C48.2757 16.0904 44.6941 14.3161 43.09 16.9508C42.1898 18.4295 40.3934 13.532 37.1174 17.4828C36.4707 18.2626 35.5113 23.6075 37.0103 21.2173C38.5093 18.8271 44.2524 24.6189 44.6655 18.7099C44.8867 15.5472 48.6292 17.1724 48.2756 16.0904L48.2757 16.0904Z" fill="#FFCC00"/>
<path d="M50.1946 25.4874C50.1946 25.4874 47.5727 22.4707 45.0776 24.2842C43.6774 25.3021 43.9057 20.0906 39.3609 22.4749C38.4638 22.9456 35.52 27.5087 37.8239 25.8801C40.1277 24.2516 43.1972 31.8085 45.8544 26.5145C47.2765 23.6809 50.1046 26.6221 50.1948 25.4874H50.1946Z" fill="#FFCC00"/>
<path d="M48.3778 34.8248C48.3778 34.8248 47.1074 31.0349 44.1088 31.7579C42.4259 32.1635 44.6282 27.4346 39.5171 27.9016C38.5082 27.9938 34.0442 31.0858 36.7957 30.4612C39.5471 29.8365 39.4963 37.9928 43.9743 34.1157C46.3711 32.0406 47.8608 35.8391 48.3778 34.825V34.8248Z" fill="#FFCC00"/>
<path d="M43.1442 42.7453C43.1442 42.7453 43.4149 38.7574 40.3673 38.2824C38.6568 38.0156 42.4958 34.4838 37.5928 32.9665C36.625 32.667 31.3192 33.8233 34.101 34.2949C36.8829 34.7665 33.7257 42.2873 39.344 40.4107C42.3509 39.4063 42.2796 43.486 43.1442 42.7454V42.7453Z" fill="#FFCC00"/>
<path d="M34.8216 48.2619C34.8216 48.2619 36.6657 44.7156 34.063 43.0605C32.6022 42.1314 37.5339 40.4313 33.6481 37.0787C32.8811 36.4169 27.5559 35.353 29.9163 36.8985C32.2767 38.444 26.3735 44.0725 32.2733 44.6014C35.4309 44.8844 33.7329 48.5944 34.8216 48.2621L34.8216 48.2619Z" fill="#FFCC00"/>
<path d="M25.7778 50C25.7778 50 28.8039 47.3887 26.9992 44.8873C25.9863 43.4834 31.1971 43.7304 28.8289 39.177C28.3615 38.2782 23.809 35.318 25.4293 37.6277C27.0495 39.9375 19.4818 42.9798 24.7662 45.6559C27.5947 47.0881 24.6434 49.9057 25.7778 50V50Z" fill="#FFCC00"/>
<path d="M16.785 48.2852C16.785 48.2852 20.5602 46.972 19.8035 43.9818C19.3788 42.3036 24.1324 44.4522 23.6076 39.3467C23.504 38.3389 20.3615 33.9102 21.0174 36.6544C21.6733 39.3986 13.5168 39.4401 17.4445 43.8741C19.5467 46.2473 15.7653 47.7799 16.7852 48.2854L16.785 48.2852Z" fill="#FFCC00"/>
<path d="M9.21978 43.5325C9.21978 43.5325 13.2145 43.6648 13.5838 40.6024C13.7911 38.8837 17.4539 42.598 18.8001 37.6454C19.0659 36.6678 17.7263 31.4054 17.3514 34.2017C16.9765 36.998 9.35091 34.1037 11.4211 39.6535C12.5292 42.6239 8.44972 42.6941 9.21965 43.5325H9.21978Z" fill="#FFCC00"/>
<path d="M16.6999 2.90653C16.6999 2.90653 14.8603 6.45492 17.4651 8.10711C18.927 9.03428 13.9974 10.7407 17.8876 14.0885C18.6554 14.7493 23.9819 15.8065 21.6195 14.2639C19.2572 12.7214 25.1532 7.08546 19.2529 6.56402C16.095 6.28496 17.7883 2.57269 16.7 2.9067L16.6999 2.90653Z" fill="#FFCC00"/>
<path d="M8.67088 8.1465C8.67088 8.1465 8.33892 12.1297 11.3789 12.6518C13.0851 12.9448 9.19211 16.4172 14.0712 18.0096C15.0343 18.3239 20.3572 17.2494 17.583 16.735C14.8088 16.2207 18.0812 8.7494 12.4348 10.5394C9.41273 11.4975 9.54676 7.41953 8.67067 8.14648L8.67088 8.1465Z" fill="#FFCC00"/>
<path d="M3.13949 16.4138C3.13949 16.4138 4.42341 20.1989 7.41951 19.4654C9.10099 19.0537 6.91565 23.7905 12.025 23.3052C13.0336 23.2095 17.4864 20.1013 14.7373 20.7359C11.9882 21.3705 12.0097 13.2141 7.54546 17.1071C5.15611 19.1908 3.65284 15.3977 3.13949 16.4136V16.4138Z" fill="#FFCC00"/>
<path d="M1.35457 25.8406C1.35457 25.8406 3.99773 28.839 6.47983 27.0078C7.87293 25.9801 7.68112 31.1931 12.2091 28.7769C13.1029 28.3 16.0147 23.7164 13.7222 25.3611C11.4298 27.0058 8.30742 19.4706 5.68745 24.7831C4.28527 27.6265 1.43658 24.7053 1.35446 25.8406L1.35457 25.8406Z" fill="#FFCC00"/>
<path d="M3.19694 34.8887C3.19694 34.8887 6.76425 36.6916 8.38921 34.0698C9.30125 32.5984 11.0583 37.5101 14.3659 33.5857C15.0188 32.811 16.0209 27.4739 14.5028 29.8522C12.9847 32.2305 7.28817 26.3927 6.82779 32.2983C6.58134 35.4591 2.85178 33.8041 3.19685 34.8887L3.19694 34.8887Z" fill="#FFCC00"/>
</g>
<path d="M25.8579 1C25.8579 1 22.785 3.55136 24.5443 6.08513C25.3803 7.28905 21.7745 7.23393 22.0366 9.97613C21.7992 10.021 21.5637 10.0703 21.3301 10.1254C21.8351 8.3616 21.9947 6.67799 18.892 6.40349C15.734 6.12443 17.4328 2.40773 16.3445 2.74146C16.3445 2.74146 14.5059 6.29395 17.1108 7.94601C18.3157 8.71023 15.1769 10.0088 16.2152 12.3147C16.0505 12.4221 15.888 12.5298 15.7276 12.643C15.4958 10.9217 14.9148 9.47407 12.0754 10.3742C9.05328 11.3322 9.18976 7.25885 8.31402 7.98588C8.31402 7.98588 7.98068 11.9718 11.0207 12.4937C12.3831 12.7276 10.1781 14.9806 11.7173 16.6932C11.5713 16.9046 11.4355 17.1216 11.2994 17.3401C10.4241 15.978 9.31691 15.0868 7.18962 16.942C4.80022 19.0257 3.29449 15.2394 2.78116 16.2554C2.78116 16.2554 4.06408 20.034 7.06033 19.3005C8.35178 18.9843 7.37372 21.7041 9.16005 22.7635C9.12805 22.927 9.09752 23.0958 9.07049 23.261C7.8047 22.4479 6.51235 22.2244 5.32884 24.6243C3.92663 27.4677 1.08248 24.5438 1 25.6792C1 25.6792 3.64262 28.6746 6.12494 26.8434C7.16043 26.0795 7.31647 28.7658 9.1899 29.2018C9.20722 29.2855 9.23099 29.3675 9.24961 29.4506C7.85351 29.2264 6.67233 29.5837 6.47321 32.1374C6.22676 35.2982 2.49593 33.64 2.84111 34.7247C2.84111 34.7247 6.41048 36.5305 8.03547 33.9088C8.69817 32.8396 9.80226 35.131 11.6278 34.9636C11.8491 35.2906 12.0903 35.6094 12.3343 35.9189C11.0374 36.3176 10.2005 37.159 11.0705 39.4914C12.1786 42.4618 8.09139 42.534 8.86134 43.3726C8.86134 43.3726 12.8606 43.4994 13.23 40.437C13.3796 39.1966 15.3324 40.7902 16.9118 39.9096C16.931 39.9208 16.9522 39.9282 16.9715 39.9394C15.9172 40.776 15.4496 41.8579 17.0909 43.711C19.193 46.0842 15.4042 47.6137 16.4241 48.1194C16.4241 48.1194 20.2059 46.8108 19.4493 43.8205C19.1386 42.5926 21.5954 43.4105 22.733 41.9398C22.8058 41.9502 22.8789 41.9502 22.952 41.9597C22.2428 43.1474 22.1642 44.3527 24.4148 45.4924C27.2432 46.9246 24.2855 49.7467 25.4199 49.841C25.4199 49.841 28.4486 47.2276 26.6439 44.7262C25.8817 43.6699 28.637 43.5468 29.0421 41.6115C29.1227 41.5912 29.2008 41.5634 29.2809 41.5419C29.008 42.9774 29.3072 44.2036 31.918 44.4377C35.0756 44.7208 33.3768 48.4322 34.4655 48.0997C34.4655 48.0997 36.3119 44.5507 33.7092 42.8952C32.5679 42.1694 35.3248 40.9823 34.7342 38.895C34.9484 38.7352 35.1652 38.5772 35.371 38.4074C35.6667 39.9508 36.3642 41.1232 38.9834 40.2483C41.9904 39.2439 41.9201 43.3273 42.7849 42.5869C42.7849 42.5869 43.0563 38.594 40.0085 38.1189C38.6229 37.9028 40.872 35.5545 39.1726 33.8598C39.2569 33.7108 39.3417 33.5638 39.4214 33.412C40.3059 34.8555 41.4134 35.8703 43.621 33.9593C46.0178 31.8842 47.5024 35.68 48.0192 34.6659C48.0192 34.6659 46.7489 30.878 43.7502 31.6009C42.3454 31.9395 43.6474 28.6972 41.143 27.8892C41.1669 27.6944 41.1858 27.4989 41.2027 27.302C42.636 28.3923 44.126 29.0975 45.5016 26.3567C46.9238 23.5232 49.7502 26.4664 49.8404 25.3317C49.8404 25.3317 47.2205 22.3139 44.7256 24.1276C43.5304 24.9965 43.5188 21.3298 40.7152 21.7194C40.6534 21.4872 40.5979 21.2508 40.5261 21.0228C42.3365 21.5174 44.0859 21.7132 44.3076 18.545C44.5287 15.3824 48.2737 17.0098 47.9199 15.9278C47.9199 15.9278 44.3394 14.1589 42.7355 16.7936C41.958 18.0706 40.5085 14.5949 38.0187 16.1666C37.8783 15.9799 37.739 15.7997 37.5908 15.6193C39.5016 15.3937 41.3 14.9602 40.2776 11.8777C39.2795 8.86852 43.3647 8.95243 42.6261 8.08634C42.6261 8.08634 38.6396 7.80603 38.1581 10.8528C37.924 12.3341 35.2452 9.64698 33.5408 12.0867C33.3841 11.9904 33.2232 11.8892 33.0631 11.7981C34.7571 10.8769 36.2774 9.80637 34.1776 7.32026C32.1321 4.89813 35.9516 3.46111 34.9439 2.93187C34.9439 2.93187 31.1331 4.15378 31.8192 7.16104C32.1504 8.61315 28.726 7.14792 28.0177 9.96728C27.8385 9.93421 27.6616 9.89489 27.4803 9.86777C28.6837 8.39942 29.6295 6.86085 26.7937 5.35996C23.9917 3.87683 26.9908 1.11614 25.8583 1.00118L25.8579 1Z" fill="url(#paint0_radial)"/>
<g opacity="0.18107">
<path opacity="0.18107" d="M12.3344 35.92C11.0374 36.3187 10.2005 37.1601 11.0706 39.4926C12.1786 42.463 8.09137 42.5352 8.86134 43.3738C8.86134 43.3738 12.8607 43.5006 13.2301 40.4381C13.3797 39.1978 15.3326 40.7914 16.9119 39.9107C16.9312 39.9219 16.9523 39.9294 16.9717 39.9405C15.9174 40.7772 15.4497 41.8591 17.0911 43.7122C19.1933 46.0854 15.4044 47.6151 16.4243 48.1208C16.4243 48.1208 20.2062 46.8121 19.4495 43.8217C19.1388 42.5938 21.5957 43.4118 22.7333 41.941C22.8061 41.9514 22.8792 41.9514 22.9523 41.9609C22.2431 43.1486 22.1645 44.3539 24.4151 45.4937C27.2436 46.9259 24.2858 49.7481 25.4202 49.8424C25.4202 49.8424 28.449 47.2289 26.6443 44.7275C25.8821 43.6711 28.6374 43.548 29.0425 41.6127C29.1232 41.5924 29.2012 41.5646 29.2814 41.5431C29.0084 42.9787 29.3077 44.2049 31.9185 44.4389C35.0762 44.722 33.3773 48.4335 34.466 48.1011C34.466 48.1011 36.3126 44.552 33.7097 42.8964C32.5685 42.1706 35.3254 40.9834 34.7347 38.8961C34.9489 38.7364 35.1658 38.5784 35.3716 38.4085C35.6673 39.952 36.3648 41.1243 38.9841 40.2495C41.9912 39.245 41.9208 43.3285 42.7857 42.5881C42.7857 42.5881 43.057 38.5951 40.0092 38.12C38.6235 37.9039 40.8727 35.5555 39.1733 33.8608C39.2576 33.7118 39.3424 33.5649 39.4221 33.413C40.3066 34.8566 41.4141 35.8714 43.6217 33.9603C46.0186 31.8852 47.5032 35.681 48.0201 34.6669C48.0201 34.6669 46.7497 30.879 43.751 31.6019C42.3461 31.9405 43.6481 28.6981 41.1437 27.8901C41.1676 27.6953 41.1865 27.4998 41.2034 27.3029C42.6367 28.3932 44.1268 29.0984 45.5024 26.3575C46.9246 23.524 49.7511 26.4673 49.8413 25.3325C49.8413 25.3325 47.2213 22.3146 44.7264 24.1284C43.5311 24.9973 43.5195 21.3306 40.7159 21.7202C40.6541 21.488 40.5986 21.2515 40.5268 21.0236C42.3372 21.5181 44.0867 21.714 44.3084 18.5457C44.5295 15.383 48.2746 17.0105 47.9208 15.9285C47.9208 15.9285 44.3402 14.1595 42.7362 16.7942C41.9587 18.0712 40.5092 14.5955 38.0194 16.1673C37.879 15.9806 37.7396 15.8003 37.5915 15.6199C39.5023 15.3943 41.3007 14.9608 40.2783 11.8782C39.2802 8.86902 43.3655 8.95292 42.6269 8.08682C42.6269 8.08682 38.6403 7.8065 38.1588 10.8533C37.9246 12.3346 35.2458 9.64748 33.5413 12.0873C32.3564 33.0266 17.1351 23.4379 12.3348 35.921L12.3344 35.92Z" fill="white"/>
</g>
<defs>
<filter id="filter0_f" x="0.634702" y="0.441861" width="50.2799" height="50.2779" filterUnits="userSpaceOnUse" color-interpolation-filters="sRGB">
<feFlood flood-opacity="0" result="BackgroundImageFix"/>
<feBlend mode="normal" in="SourceGraphic" in2="BackgroundImageFix" result="shape"/>
<feGaussianBlur stdDeviation="0.35988" result="effect1_foregroundBlur"/>
</filter>
<radialGradient id="paint0_radial" cx="0" cy="0" r="1" gradientUnits="userSpaceOnUse" gradientTransform="translate(12.3689 6.07909) scale(36.5503)">
<stop stop-color="#FFA700"/>
<stop offset="1" stop-color="#FFA700" stop-opacity="0"/>
</radialGradient>
</defs>
</svg>
