<svg width="16" height="55" viewBox="0 0 16 55" fill="none" xmlns="http://www.w3.org/2000/svg">
<g filter="url(#filter0_f)">
<path d="M8.13871 1C8.65108 1 9.15842 1.09383 9.63179 1.27613C10.1052 1.45843 10.5353 1.72564 10.8976 2.06248C11.2599 2.39933 11.5473 2.79923 11.7433 3.23935C11.9394 3.67946 12.0403 4.15117 12.0403 4.62755V42.7956C12.0403 43.272 11.9394 43.7437 11.7433 44.1838C11.5473 44.6239 11.2599 45.0238 10.8976 45.3607C10.5353 45.6975 10.1052 45.9647 9.63179 46.147C9.15842 46.3293 8.65108 46.4232 8.13871 46.4232C7.10393 46.4232 6.11153 46.041 5.37983 45.3607C4.64813 44.6804 4.23707 43.7577 4.23707 42.7956V4.62755C4.23707 3.66546 4.64813 2.74278 5.37983 2.06248C6.11153 1.38219 7.10393 1 8.13871 1" fill="#E6E6E6"/>
<path d="M15.0964 46.928C15.0964 50.8304 11.9408 53.9938 8.04822 53.9938C4.15559 53.9938 1 50.8304 1 46.928C1 43.0256 4.15559 39.8622 8.04822 39.8622C11.9408 39.8622 15.0964 43.0256 15.0964 46.928Z" fill="#E6E6E6"/>
<path d="M8.19349 3.07263C8.402 3.07263 8.60848 3.1138 8.80111 3.1938C8.99375 3.27379 9.16879 3.39104 9.31623 3.53885C9.46367 3.68666 9.58061 3.86214 9.66041 4.05526C9.7402 4.24838 9.78127 4.45537 9.78127 4.66441V42.7597C9.78127 43.1818 9.61399 43.5867 9.31623 43.8852C9.01846 44.1837 8.61459 44.3514 8.19349 44.3514C7.77238 44.3514 7.36853 44.1837 7.07076 43.8852C6.773 43.5867 6.60572 43.1818 6.60572 42.7597V4.66441C6.60572 4.45537 6.64679 4.24838 6.72659 4.05526C6.80638 3.86214 6.92333 3.68666 7.07076 3.53885C7.2182 3.39104 7.39324 3.27379 7.58588 3.1938C7.77852 3.1138 7.98498 3.07263 8.19349 3.07263Z" fill="#ABABFF"/>
<path d="M12.6926 46.9279C12.6926 49.4999 10.6128 51.5848 8.04732 51.5848C5.48181 51.5848 3.40206 49.4999 3.40206 46.9279C3.40206 44.356 5.48181 42.2711 8.04732 42.2711C10.6128 42.2711 12.6926 44.356 12.6926 46.9279Z" fill="#FF6000"/>
<path d="M6.61001 26.2259C6.61001 26.2259 7.1104 26.7089 8.10075 26.7166C9.16278 26.7249 9.74714 26.2259 9.74714 26.2259V45.9432H6.54324L6.61 26.2259H6.61001Z" fill="#FF6000"/>
<path d="M8.32374 3.89926C7.94415 3.89926 7.60905 4.14867 7.39833 4.53493C7.51644 4.4793 7.64323 4.44903 7.77535 4.44903C8.41633 4.44903 8.93211 5.1585 8.93211 6.04032V42.6017C8.64662 42.5435 8.35222 42.5115 8.04955 42.5115C7.77784 42.5115 7.51296 42.5373 7.25479 42.5846C8.71235 43.1845 9.73969 44.6227 9.73969 46.3019C9.73969 48.5202 7.94782 50.3178 5.73815 50.3178C5.5488 50.3178 5.36353 50.3047 5.18119 50.2792C5.95223 50.9428 6.95359 51.3443 8.04955 51.3443C10.4826 51.3443 12.4538 49.3681 12.4538 46.929C12.4538 44.9806 11.195 43.3279 9.44836 42.7413C9.46921 42.6214 9.48049 42.4967 9.48049 42.3677V5.49083C9.4805 4.60901 8.9647 3.89954 8.32373 3.89954L8.32374 3.89926Z" fill="white" fill-opacity="0.35632"/>
</g>
<defs>
<filter id="filter0_f" x="0.77932" y="0.77932" width="14.5378" height="53.4352" filterUnits="userSpaceOnUse" color-interpolation-filters="sRGB">
<feFlood flood-opacity="0" result="BackgroundImageFix"/>
<feBlend mode="normal" in="SourceGraphic" in2="BackgroundImageFix" result="shape"/>
<feGaussianBlur stdDeviation="0.11034" result="effect1_foregroundBlur"/>
</filter>
</defs>
</svg>
