<svg width="67" height="48" viewBox="0 0 67 48" fill="none" xmlns="http://www.w3.org/2000/svg">
<g filter="url(#filter0_f)">
<path d="M11.2115 2.24957L20.1048 3.03562C20.1048 3.03562 25.6948 4.09163 28.4926 4.60771C31.8589 5.22864 35.1788 6.10304 38.5986 6.44182C40.172 6.59768 43.3485 6.52915 43.3485 6.52915C43.3485 6.52915 44.1521 6.33367 44.5612 6.35447C47.6954 6.51389 50.5085 8.18278 53.606 8.62518C55.0864 8.83667 58.103 8.79986 58.103 8.79986C58.103 8.79986 65.6824 9.93525 65.9856 14.2148C66.2888 18.4944 61.741 22.3373 58.5073 22.25C55.2735 22.1627 55.111 22.2353 53.4543 22.512C50.6302 22.9835 48.1166 24.5232 45.2686 24.8702C43.666 25.0655 40.4177 24.6956 40.4177 24.6956L38.1945 25.4379C38.1945 25.4379 29.9075 27.534 28.1895 26.748C26.4716 25.9621 20.7112 27.1411 20.7112 27.1411C20.7112 27.1411 12.6263 29.7611 11.0094 29.5864C9.39253 29.4118 11.3126 2.33757 11.2115 2.25005L11.2115 2.24957Z" fill="#E0EEFF"/>
<path d="M19.8397 2.91159C21.7956 4.94084 26.722 6.16677 26.3859 17.166C26.2754 20.7812 22.8494 25.7745 20.5022 27.3109C23.876 26.8631 29.4864 26.8771 29.4864 26.8771C29.4864 26.8771 32.5013 25.1548 32.9404 16.8673C33.3676 8.80202 29.9919 6.08493 28.4358 4.57036C24.7802 3.45316 24.4585 3.22811 19.8397 2.91165V2.91159Z" fill="#FFAE00"/>
<path d="M38.2235 6.30425C39.8625 8.00475 43.3133 7.71472 43.0317 16.9319C42.9391 19.9614 40.0681 24.1457 38.1014 25.4333C40.9285 25.058 45.1219 24.9233 45.1219 24.9233C45.1219 24.9233 48.1564 23.6265 48.5243 16.6815C48.8824 9.92304 46.0534 7.64604 44.7496 6.37693C41.6863 5.44071 42.0942 6.56953 38.2238 6.30435L38.2235 6.30425Z" fill="#FFAE00"/>
<path d="M53.3487 8.67689C54.5441 9.91712 57.0609 9.70558 56.8555 16.4278C56.788 18.6372 54.6941 21.689 53.2595 22.628C55.3214 22.3543 58.3797 22.2561 58.3797 22.2561C58.3797 22.2561 60.5928 21.3103 60.8612 16.2452C61.1224 11.316 59.0592 9.65553 58.1082 8.72986C55.874 8.04707 56.1717 8.87033 53.3487 8.67692V8.67689Z" fill="#FFAE00"/>
<path opacity="0.4097" d="M11.2115 2.24951C11.2115 2.24951 18.6927 2.8666 22.4291 3.21023C24.9925 3.446 28.4926 4.60765 28.4926 4.60765L38.5986 6.44176L42.2368 5.91772L44.5611 6.35442L53.6059 8.62513L55.9795 8.38759L58.103 8.79981C58.103 8.79981 65.6824 9.9352 65.9856 14.2148C46.7681 26.6148 33.4497 9.1657 10.5834 14.8286C5.91506 15.9848 11.2582 2.29084 11.2103 2.24936L11.2115 2.24951Z" fill="white"/>
<path d="M10.8064 27.6109C11.3156 27.6109 11.804 27.7857 12.1641 28.0969C12.5242 28.4081 12.7265 28.8302 12.7265 29.2703V45.3405C12.7265 45.7807 12.5242 46.2027 12.1641 46.514C11.804 46.8252 11.3156 47 10.8064 47C10.2971 47 9.80874 46.8252 9.44865 46.514C9.08856 46.2027 8.88626 45.7807 8.88626 45.3405V29.2703C8.88626 28.8302 9.08856 28.4081 9.44865 28.0969C9.80874 27.7857 10.2971 27.6109 10.8064 27.6109" fill="#813F00"/>
<path d="M19.9784 16.0346C19.9784 24.3378 15.7299 31.0691 10.4892 31.0691C5.24845 31.0691 1 24.3381 1 16.0346C1 7.7311 5.24845 1 10.4892 1C15.7299 1 19.9784 7.7311 19.9784 16.0346Z" fill="#813F00"/>
<g filter="url(#filter1_f)">
<path d="M18.9066 16.0412C18.9066 23.7257 15.1434 29.9553 10.5014 29.9553C5.85927 29.9553 2.09613 23.7258 2.09613 16.0412C2.09613 8.35647 5.85927 2.12698 10.5014 2.12698C15.1434 2.12698 18.9066 8.35647 18.9066 16.0412Z" fill="#9E4D00"/>
</g>
<path d="M17.8474 16.0458C17.8474 22.9511 14.5586 28.549 10.5017 28.549C6.44471 28.549 3.15591 22.9512 3.15591 16.0458C3.15591 9.14032 6.44471 3.54251 10.5017 3.54251C14.5586 3.54251 17.8474 9.14032 17.8474 16.0458Z" fill="#B7CEE8"/>
<g filter="url(#filter2_f)">
<path d="M9.39073 29.4946L9.59285 45.1281C9.59285 45.1281 9.79498 46.2635 10.4014 46.1762C11.0077 46.0888 11.2098 45.7395 11.2098 45.7395L11.1088 29.3198L9.39075 29.4944L9.39073 29.4946Z" fill="#9E4D00"/>
</g>
</g>
<defs>
<filter id="filter0_f" x="0.8422" y="0.8422" width="65.3156" height="46.3156" filterUnits="userSpaceOnUse" color-interpolation-filters="sRGB">
<feFlood flood-opacity="0" result="BackgroundImageFix"/>
<feBlend mode="normal" in="SourceGraphic" in2="BackgroundImageFix" result="shape"/>
<feGaussianBlur stdDeviation="0.0789" result="effect1_foregroundBlur"/>
</filter>
<filter id="filter1_f" x="2.00307" y="2.03393" width="16.9966" height="28.0144" filterUnits="userSpaceOnUse" color-interpolation-filters="sRGB">
<feFlood flood-opacity="0" result="BackgroundImageFix"/>
<feBlend mode="normal" in="SourceGraphic" in2="BackgroundImageFix" result="shape"/>
<feGaussianBlur stdDeviation="0.0465258" result="effect1_foregroundBlur"/>
</filter>
<filter id="filter2_f" x="9.30919" y="29.2382" width="1.98219" height="17.0243" filterUnits="userSpaceOnUse" color-interpolation-filters="sRGB">
<feFlood flood-opacity="0" result="BackgroundImageFix"/>
<feBlend mode="normal" in="SourceGraphic" in2="BackgroundImageFix" result="shape"/>
<feGaussianBlur stdDeviation="0.0407664" result="effect1_foregroundBlur"/>
</filter>
</defs>
</svg>
