<svg width="84" height="50" viewBox="0 0 84 50" fill="none" xmlns="http://www.w3.org/2000/svg">
<g filter="url(#filter0_f)">
<path d="M73.9117 21.1727C73.9117 32.3139 64.8802 41.3454 53.739 41.3454C42.5978 41.3454 33.5663 32.3139 33.5663 21.1727C33.5663 10.0316 42.5978 1 53.739 1C64.8802 1 73.9117 10.0316 73.9117 21.1727V21.1727Z" fill="#ECECEC"/>
<path d="M66.9917 28.8273C66.9917 39.9684 56.273 49 43.0506 49C29.8283 49 19.1096 39.9684 19.1096 28.8273C19.1096 17.6861 29.8283 8.65454 43.0506 8.65454C56.273 8.65454 66.9917 17.6861 66.9917 28.8273V28.8273Z" fill="#ECECEC"/>
<path d="M49.1226 25.7916C49.1226 35.1878 41.5055 42.8048 32.1093 42.8048C22.7131 42.8048 15.0961 35.1878 15.0961 25.7916C15.0961 16.3954 22.7131 8.77835 32.1093 8.77835C41.5055 8.77835 49.1226 16.3954 49.1226 25.7916V25.7916Z" fill="#ECECEC"/>
<path d="M42.4942 30.5307C42.4942 39.0543 34.9458 45.964 25.6343 45.964C16.3228 45.964 8.77439 39.0543 8.77439 30.5307C8.77439 22.007 16.3228 15.0973 25.6343 15.0973C34.9458 15.0973 42.4942 22.007 42.4942 30.5307V30.5307Z" fill="#ECECEC"/>
<path d="M21.9021 31.1383C21.9021 36.9102 17.2231 41.5893 11.4511 41.5893C5.67906 41.5893 1 36.9102 1 31.1383C1 25.3663 5.67906 20.6872 11.4511 20.6872C17.2231 20.6872 21.9021 25.3663 21.9021 31.1383V31.1383Z" fill="#ECECEC"/>
<path d="M83.5132 31.1377C83.5132 38.7217 77.3652 44.8698 69.7811 44.8698C62.197 44.8698 56.049 38.7217 56.049 31.1377C56.049 23.5536 62.197 17.4055 69.7811 17.4055C77.3652 17.4055 83.5132 23.5536 83.5132 31.1377V31.1377Z" fill="#ECECEC"/>
<path d="M75.8573 28.3441C75.8573 35.9282 69.7093 42.0762 62.1252 42.0762C54.5411 42.0762 48.393 35.9282 48.393 28.3441C48.393 20.76 54.5411 14.612 62.1252 14.612C69.7093 14.612 75.8573 20.76 75.8573 28.3441V28.3441Z" fill="#ECECEC"/>
<g filter="url(#filter1_f)">
<path d="M81.6307 26.3972C83.4536 31.1238 84.0459 37.1544 79.3802 37.1544C74.7145 37.1544 64.127 32.7644 64.127 28.0985C64.127 23.4327 67.9094 19.6504 72.5752 19.6504C77.2411 19.6504 79.8082 21.6706 81.6311 26.3972H81.6307Z" fill="#F8F8F8"/>
</g>
<g filter="url(#filter2_f)">
<path d="M68.6122 17.4057C68.6122 25.4191 60.4834 23.5799 52.4703 23.5799C44.4571 23.5799 39.5936 25.419 39.5936 17.4057C39.5936 9.39244 46.0896 2.89633 54.103 2.89633C62.1164 2.89633 68.6124 9.39236 68.6124 17.4057H68.6122Z" fill="#D1D1D1"/>
</g>
<g filter="url(#filter3_f)">
<path d="M40.5718 30.5314C40.5718 38.0828 33.8844 44.2043 25.6349 44.2043C17.3855 44.2043 10.698 38.0828 10.698 30.5314C10.698 22.98 17.3855 16.8585 25.6349 16.8585C33.8844 16.8585 40.5718 22.98 40.5718 30.5314V30.5314Z" fill="#CCCCCC"/>
</g>
<g filter="url(#filter4_f)">
<path d="M19.537 31.3111C19.537 36.5559 15.5505 40.8076 10.6329 40.8076C5.71527 40.8076 1.72879 36.5559 1.72879 31.3111C1.72879 26.0662 5.71527 21.8145 10.6329 21.8145C15.5505 21.8145 19.537 26.0662 19.537 31.3111V31.3111Z" fill="#CFCFCF"/>
</g>
<g opacity="0.86831" filter="url(#filter5_f)">
<path d="M33.0392 37.292C33.0392 42.2506 29.2452 44.3904 24.2865 44.3904C19.3279 44.3904 15.3834 43.8298 15.3834 38.8713C15.3834 33.9128 18.576 33.8032 23.5346 33.8032C28.4932 33.8032 33.0392 32.3336 33.0392 37.292Z" fill="#BDBDBD"/>
</g>
<g opacity="0.81481" filter="url(#filter6_f)">
<path d="M58.8554 36.9848C58.8554 44.3083 50.8456 47.4686 43.5223 47.4686C36.199 47.4686 30.373 46.6406 30.373 39.3172C30.373 31.9938 34.2538 28.4364 36.6544 35.3553C39.3378 43.0889 46.1379 40.4886 58.8556 36.985L58.8554 36.9848Z" fill="#BDBDBD"/>
</g>
<g filter="url(#filter7_f)">
<path d="M26.0134 29.1231C26.0134 34.4454 22.1719 38.7599 17.433 38.7599C12.6941 38.7599 8.85258 34.4454 8.85258 29.1231C8.85258 23.8008 12.6941 19.4863 17.433 19.4863C22.1719 19.4863 26.0134 23.8008 26.0134 29.1231V29.1231Z" fill="#E9E9E9"/>
</g>
<g filter="url(#filter8_f)">
<path d="M46.1946 23.9095C46.1946 31.5517 39.9995 37.7469 32.3573 37.7469C24.7151 37.7469 18.5199 31.5517 18.5199 23.9095C18.5199 16.2673 24.7151 10.0722 32.3573 10.0722C39.9995 10.0722 46.1946 16.2673 46.1946 23.9095V23.9095Z" fill="#C4C4C4"/>
</g>
<g filter="url(#filter9_f)">
<path d="M50.7263 19.4403C50.7263 23.8871 44.7336 27.4921 37.3411 27.4921C29.9486 27.4921 23.9559 23.8871 23.9559 19.4403C23.9559 14.9935 29.9486 11.3885 37.3411 11.3885C44.7336 11.3885 50.7263 14.9935 50.7263 19.4403V19.4403Z" fill="#E7E7E7"/>
</g>
<g opacity="0.81893" filter="url(#filter10_f)">
<path d="M12.3688 24.1834C13.2538 25.8303 13.6776 27.4523 13.707 30.4521C13.7529 35.1205 15.0661 35.8463 16.1522 36.0651C17.2866 36.2936 19.5773 33.1043 19.3047 31.199C18.2635 25.3178 16.6319 19.2448 9.62045 21.1911C9.62045 21.1911 11.4838 22.5363 12.3687 24.1832L12.3688 24.1834Z" fill="white"/>
</g>
<g opacity="0.93827" filter="url(#filter11_f)">
<path d="M69.9857 18.0267C69.9857 24.3121 64.8512 29.665 59.2958 29.665C53.7404 29.665 62.5937 15.178 49.9783 9.28397C44.2837 6.62341 52.7022 2.44768 58.1788 3.38045C65.3139 4.59567 69.9857 11.7411 69.9857 18.0263V18.0267Z" fill="#FCFCFC"/>
</g>
<g opacity="0.97062" filter="url(#filter12_f)">
<path d="M77.5436 40.9735C77.5436 45.8997 63.2885 42.8654 61.0279 41.4949C58.9396 42.0148 43.6759 51.765 46.9406 45.1202C49.1132 40.6989 58.4024 42.3369 60.2799 39.4837C64.22 41.958 65.2543 41.4607 72.9021 41.489L77.5422 40.9734L77.5436 40.9735Z" fill="#BDBDBD"/>
</g>
<g opacity="0.92181" filter="url(#filter13_f)">
<path d="M33.633 14.5579C34.8999 16.4339 35.5066 18.2815 35.5488 21.6985C35.6145 27.0163 35.9479 26.1245 37.5027 26.3741C39.1267 26.6344 45.4993 25.4074 45.1091 23.2372C43.6185 16.538 39.7362 8.93269 29.6986 11.1501C29.6986 11.1501 32.3661 12.6824 33.633 14.5583L33.633 14.5579Z" fill="white"/>
</g>
<g opacity="0.72428" filter="url(#filter14_f)">
<path d="M54.8264 21.1572C58.0109 24.8873 59.2043 34.1591 56.8143 36.0835C54.7992 30.1477 52.4329 25.9441 45.0569 24.7594C40.8999 24.0919 42.2661 19.2466 45.039 17.8361C48.6517 15.9986 51.6414 17.4271 54.8259 21.1572L54.8264 21.1572Z" fill="#FCFCFC"/>
</g>
</g>
<defs>
<filter id="filter0_f" x="0.82152" y="0.82152" width="82.8702" height="48.357" filterUnits="userSpaceOnUse" color-interpolation-filters="sRGB">
<feFlood flood-opacity="0" result="BackgroundImageFix"/>
<feBlend mode="normal" in="SourceGraphic" in2="BackgroundImageFix" result="shape"/>
<feGaussianBlur stdDeviation="0.08924" result="effect1_foregroundBlur"/>
</filter>
<filter id="filter1_f" x="63.5529" y="19.0763" width="20.0007" height="18.6522" filterUnits="userSpaceOnUse" color-interpolation-filters="sRGB">
<feFlood flood-opacity="0" result="BackgroundImageFix"/>
<feBlend mode="normal" in="SourceGraphic" in2="BackgroundImageFix" result="shape"/>
<feGaussianBlur stdDeviation="0.287052" result="effect1_foregroundBlur"/>
</filter>
<filter id="filter2_f" x="38.3919" y="1.69465" width="31.4222" height="23.269" filterUnits="userSpaceOnUse" color-interpolation-filters="sRGB">
<feFlood flood-opacity="0" result="BackgroundImageFix"/>
<feBlend mode="normal" in="SourceGraphic" in2="BackgroundImageFix" result="shape"/>
<feGaussianBlur stdDeviation="0.600843" result="effect1_foregroundBlur"/>
</filter>
<filter id="filter3_f" x="9.63481" y="15.7953" width="32.0002" height="29.4723" filterUnits="userSpaceOnUse" color-interpolation-filters="sRGB">
<feFlood flood-opacity="0" result="BackgroundImageFix"/>
<feBlend mode="normal" in="SourceGraphic" in2="BackgroundImageFix" result="shape"/>
<feGaussianBlur stdDeviation="0.531618" result="effect1_foregroundBlur"/>
</filter>
<filter id="filter4_f" x="1.26012" y="21.3458" width="18.7456" height="19.9305" filterUnits="userSpaceOnUse" color-interpolation-filters="sRGB">
<feFlood flood-opacity="0" result="BackgroundImageFix"/>
<feBlend mode="normal" in="SourceGraphic" in2="BackgroundImageFix" result="shape"/>
<feGaussianBlur stdDeviation="0.234335" result="effect1_foregroundBlur"/>
</filter>
<filter id="filter5_f" x="14.6398" y="32.8561" width="19.143" height="12.278" filterUnits="userSpaceOnUse" color-interpolation-filters="sRGB">
<feFlood flood-opacity="0" result="BackgroundImageFix"/>
<feBlend mode="normal" in="SourceGraphic" in2="BackgroundImageFix" result="shape"/>
<feGaussianBlur stdDeviation="0.371797" result="effect1_foregroundBlur"/>
</filter>
<filter id="filter6_f" x="29.2747" y="30.5391" width="30.6791" height="18.0277" filterUnits="userSpaceOnUse" color-interpolation-filters="sRGB">
<feFlood flood-opacity="0" result="BackgroundImageFix"/>
<feBlend mode="normal" in="SourceGraphic" in2="BackgroundImageFix" result="shape"/>
<feGaussianBlur stdDeviation="0.549118" result="effect1_foregroundBlur"/>
</filter>
<filter id="filter7_f" x="7.86774" y="18.5014" width="19.1305" height="21.2434" filterUnits="userSpaceOnUse" color-interpolation-filters="sRGB">
<feFlood flood-opacity="0" result="BackgroundImageFix"/>
<feBlend mode="normal" in="SourceGraphic" in2="BackgroundImageFix" result="shape"/>
<feGaussianBlur stdDeviation="0.492423" result="effect1_foregroundBlur"/>
</filter>
<filter id="filter8_f" x="17.5208" y="9.0731" width="29.6729" height="29.6729" filterUnits="userSpaceOnUse" color-interpolation-filters="sRGB">
<feFlood flood-opacity="0" result="BackgroundImageFix"/>
<feBlend mode="normal" in="SourceGraphic" in2="BackgroundImageFix" result="shape"/>
<feGaussianBlur stdDeviation="0.49955" result="effect1_foregroundBlur"/>
</filter>
<filter id="filter9_f" x="22.5948" y="10.0274" width="29.4927" height="18.8258" filterUnits="userSpaceOnUse" color-interpolation-filters="sRGB">
<feFlood flood-opacity="0" result="BackgroundImageFix"/>
<feBlend mode="normal" in="SourceGraphic" in2="BackgroundImageFix" result="shape"/>
<feGaussianBlur stdDeviation="0.680566" result="effect1_foregroundBlur"/>
</filter>
<filter id="filter10_f" x="9.05059" y="20.2508" width="10.8463" height="16.3958" filterUnits="userSpaceOnUse" color-interpolation-filters="sRGB">
<feFlood flood-opacity="0" result="BackgroundImageFix"/>
<feBlend mode="normal" in="SourceGraphic" in2="BackgroundImageFix" result="shape"/>
<feGaussianBlur stdDeviation="0.284933" result="effect1_foregroundBlur"/>
</filter>
<filter id="filter11_f" x="46.8972" y="2.0639" width="24.2718" height="28.7844" filterUnits="userSpaceOnUse" color-interpolation-filters="sRGB">
<feFlood flood-opacity="0" result="BackgroundImageFix"/>
<feBlend mode="normal" in="SourceGraphic" in2="BackgroundImageFix" result="shape"/>
<feGaussianBlur stdDeviation="0.591633" result="effect1_foregroundBlur"/>
</filter>
<filter id="filter12_f" x="45.7458" y="38.7449" width="32.5366" height="9.42411" filterUnits="userSpaceOnUse" color-interpolation-filters="sRGB">
<feFlood flood-opacity="0" result="BackgroundImageFix"/>
<feBlend mode="normal" in="SourceGraphic" in2="BackgroundImageFix" result="shape"/>
<feGaussianBlur stdDeviation="0.369373" result="effect1_foregroundBlur"/>
</filter>
<filter id="filter13_f" x="28.7522" y="9.81123" width="17.3205" height="17.5438" filterUnits="userSpaceOnUse" color-interpolation-filters="sRGB">
<feFlood flood-opacity="0" result="BackgroundImageFix"/>
<feBlend mode="normal" in="SourceGraphic" in2="BackgroundImageFix" result="shape"/>
<feGaussianBlur stdDeviation="0.473198" result="effect1_foregroundBlur"/>
</filter>
<filter id="filter14_f" x="41.2274" y="15.8401" width="18.0469" height="21.4411" filterUnits="userSpaceOnUse" color-interpolation-filters="sRGB">
<feFlood flood-opacity="0" result="BackgroundImageFix"/>
<feBlend mode="normal" in="SourceGraphic" in2="BackgroundImageFix" result="shape"/>
<feGaussianBlur stdDeviation="0.598849" result="effect1_foregroundBlur"/>
</filter>
</defs>
</svg>
